<mxfile host="app.diagrams.net" agent="Mozilla/5.0 (Windows NT 10.0; Win64; x64; rv:141.0) Gecko/20100101 Firefox/141.0" version="28.1.0">
  <diagram name="Seite-1" id="VladdEYaZoI92wPH5WoN">
    <mxGraphModel dx="946" dy="505" grid="1" gridSize="10" guides="1" tooltips="1" connect="1" arrows="1" fold="1" page="1" pageScale="1" pageWidth="827" pageHeight="1169" math="0" shadow="0">
      <root>
        <mxCell id="0" />
        <mxCell id="1" parent="0" />
        <mxCell id="VjasIdtI8_T2qeboh9VV-9" value="" style="rounded=0;whiteSpace=wrap;html=1;fillColor=#fff2cc;strokeColor=#d6b656;" vertex="1" parent="1">
          <mxGeometry x="110" y="270" width="380" height="140" as="geometry" />
        </mxCell>
        <mxCell id="VjasIdtI8_T2qeboh9VV-5" style="edgeStyle=orthogonalEdgeStyle;rounded=0;orthogonalLoop=1;jettySize=auto;html=1;exitX=1;exitY=0.5;exitDx=0;exitDy=0;entryX=0;entryY=0.5;entryDx=0;entryDy=0;startArrow=classic;startFill=1;" edge="1" parent="1" source="VjasIdtI8_T2qeboh9VV-1" target="VjasIdtI8_T2qeboh9VV-2">
          <mxGeometry relative="1" as="geometry" />
        </mxCell>
        <mxCell id="VjasIdtI8_T2qeboh9VV-1" value="&lt;b&gt;api&lt;/b&gt;" style="rounded=0;whiteSpace=wrap;html=1;" vertex="1" parent="1">
          <mxGeometry x="120" y="280" width="160" height="40" as="geometry" />
        </mxCell>
        <mxCell id="VjasIdtI8_T2qeboh9VV-2" value="&lt;b&gt;db&lt;/b&gt;" style="rounded=0;whiteSpace=wrap;html=1;" vertex="1" parent="1">
          <mxGeometry x="320" y="280" width="160" height="40" as="geometry" />
        </mxCell>
        <mxCell id="VjasIdtI8_T2qeboh9VV-3" value="&lt;b&gt;worker&lt;/b&gt;" style="rounded=0;whiteSpace=wrap;html=1;" vertex="1" parent="1">
          <mxGeometry x="120" y="360" width="160" height="40" as="geometry" />
        </mxCell>
        <mxCell id="VjasIdtI8_T2qeboh9VV-8" style="edgeStyle=orthogonalEdgeStyle;rounded=0;orthogonalLoop=1;jettySize=auto;html=1;exitX=0.5;exitY=0;exitDx=0;exitDy=0;entryX=0.5;entryY=1;entryDx=0;entryDy=0;startArrow=classic;startFill=1;" edge="1" parent="1" source="VjasIdtI8_T2qeboh9VV-4" target="VjasIdtI8_T2qeboh9VV-2">
          <mxGeometry relative="1" as="geometry" />
        </mxCell>
        <mxCell id="VjasIdtI8_T2qeboh9VV-4" value="&lt;b&gt;scheduler&lt;/b&gt;" style="rounded=0;whiteSpace=wrap;html=1;" vertex="1" parent="1">
          <mxGeometry x="320" y="360" width="160" height="40" as="geometry" />
        </mxCell>
        <mxCell id="VjasIdtI8_T2qeboh9VV-7" value="" style="endArrow=classic;html=1;rounded=0;startArrow=classic;startFill=1;" edge="1" parent="1">
          <mxGeometry width="50" height="50" relative="1" as="geometry">
            <mxPoint x="280" y="360" as="sourcePoint" />
            <mxPoint x="320" y="320" as="targetPoint" />
          </mxGeometry>
        </mxCell>
        <mxCell id="VjasIdtI8_T2qeboh9VV-10" value="&lt;b&gt;Open Route Service API&lt;/b&gt;" style="rounded=0;whiteSpace=wrap;html=1;" vertex="1" parent="1">
          <mxGeometry x="120" y="440" width="160" height="40" as="geometry" />
        </mxCell>
        <mxCell id="VjasIdtI8_T2qeboh9VV-16" style="edgeStyle=orthogonalEdgeStyle;rounded=0;orthogonalLoop=1;jettySize=auto;html=1;exitX=0;exitY=0.5;exitDx=0;exitDy=0;entryX=0.25;entryY=0;entryDx=0;entryDy=0;startArrow=classic;startFill=1;" edge="1" parent="1" source="VjasIdtI8_T2qeboh9VV-11" target="VjasIdtI8_T2qeboh9VV-1">
          <mxGeometry relative="1" as="geometry" />
        </mxCell>
        <mxCell id="VjasIdtI8_T2qeboh9VV-11" value="&lt;b&gt;SoRa-X-API&lt;/b&gt;" style="rounded=0;whiteSpace=wrap;html=1;" vertex="1" parent="1">
          <mxGeometry x="280" y="120" width="160" height="40" as="geometry" />
        </mxCell>
        <mxCell id="VjasIdtI8_T2qeboh9VV-15" style="edgeStyle=orthogonalEdgeStyle;rounded=0;orthogonalLoop=1;jettySize=auto;html=1;exitX=0;exitY=0.5;exitDx=0;exitDy=0;entryX=0.5;entryY=0;entryDx=0;entryDy=0;startArrow=classic;startFill=1;" edge="1" parent="1" source="VjasIdtI8_T2qeboh9VV-12" target="VjasIdtI8_T2qeboh9VV-1">
          <mxGeometry relative="1" as="geometry" />
        </mxCell>
        <mxCell id="VjasIdtI8_T2qeboh9VV-12" value="&lt;b&gt;SoRa User Module&lt;/b&gt;" style="rounded=0;whiteSpace=wrap;html=1;" vertex="1" parent="1">
          <mxGeometry x="280" y="170" width="160" height="40" as="geometry" />
        </mxCell>
        <mxCell id="VjasIdtI8_T2qeboh9VV-13" value="&lt;b&gt;BKG Geocoder&lt;/b&gt;" style="rounded=0;whiteSpace=wrap;html=1;" vertex="1" parent="1">
          <mxGeometry x="280" y="220" width="160" height="40" as="geometry" />
        </mxCell>
        <mxCell id="VjasIdtI8_T2qeboh9VV-14" style="edgeStyle=orthogonalEdgeStyle;rounded=0;orthogonalLoop=1;jettySize=auto;html=1;exitX=0;exitY=0.5;exitDx=0;exitDy=0;entryX=0.342;entryY=0.071;entryDx=0;entryDy=0;entryPerimeter=0;startArrow=classic;startFill=1;" edge="1" parent="1" source="VjasIdtI8_T2qeboh9VV-13" target="VjasIdtI8_T2qeboh9VV-9">
          <mxGeometry relative="1" as="geometry" />
        </mxCell>
      </root>
    </mxGraphModel>
  </diagram>
</mxfile>
